<mxfile host="app.diagrams.net" modified="2024-04-04T07:25:56.843Z" agent="Mozilla/5.0 (Macintosh; Intel Mac OS X 10_15_7) AppleWebKit/605.1.15 (KHTML, like Gecko) Version/17.4.1 Safari/605.1.15" version="24.2.2" etag="3RhuwlQqNH7S5Bu73Og6" type="github">
  <diagram name="Page-1" id="cKV9dmN2xr7SZSw3vSVD">
    <mxGraphModel>
      <root>
        <mxCell id="0" />
        <mxCell id="1" parent="0" />
      </root>
    </mxGraphModel>
  </diagram>
</mxfile>
